<svg xmlns="http://www.w3.org/2000/svg" width="27" height="27" viewBox="0 0 27 27">
    <g fill="none" fill-rule="evenodd">
        <g>
            <g>
                <path d="M0 0H27V27H0z" transform="translate(-1082 -1260) translate(1082 1260)"/>
                <path fill="#9B9B9B" fill-rule="nonzero" d="M19.794 18.235H10.97c-1.217-.002-2.203-.988-2.205-2.205V7.205C8.766 5.988 9.753 5.002 10.97 5h8.824c1.218.002 2.204.988 2.206 2.205v8.824c-.001 1.217-.988 2.205-2.206 2.206zM10.97 6.47c-.406 0-.735.33-.735.735v8.824c0 .406.329.735.735.736h8.824c.406-.001.735-.33.736-.736V7.205c0-.406-.33-.734-.736-.735H10.97z" transform="translate(-1082 -1260) translate(1082 1260)"/>
                <path fill="#9B9B9B" fill-rule="nonzero" d="M11.412 10.824L18.824 10.824 18.824 12.412 11.412 12.412z" transform="translate(-1082 -1260) translate(1082 1260)"/>
                <path fill="#9B9B9B" fill-rule="nonzero" d="M14.588 8.176L16.176 8.176 16.176 15.588 14.588 15.588zM15.194 23H6.042c-1.127-.001-2.04-.915-2.042-2.042v-9.151c.001-1.127.915-2.04 2.042-2.042H7.35v1.47H6.042c-.315.001-.57.256-.57.571v9.152c0 .315.255.57.57.57h9.152c.315 0 .57-.255.57-.57V19.65h1.471v1.308c-.001 1.127-.915 2.04-2.041 2.042z" transform="translate(-1082 -1260) translate(1082 1260)"/>
            </g>
        </g>
    </g>
</svg>
