<svg xmlns="http://www.w3.org/2000/svg" width="20" height="18" viewBox="0 0 20 18">
    <g fill="none" fill-rule="evenodd">
        <g fill="#202B47" fill-rule="nonzero">
            <g>
                <path d="M18.995 10.37c-.556 0-1.004.446-1.004.994v4.422H2.009v-4.42c0-.55-.45-.993-1.004-.993-.557 0-1.005.445-1.005.993v5.418c0 .55.45.994 1.007.994h17.988c.557 0 1.005-.446 1.005-.994v-5.418c0-.55-.45-.996-1.005-.996z" transform="translate(-1189 -469) translate(1189 469)"/>
                <path d="M9.568 14.006c.183.21.43.327.689.327.259 0 .509-.118.689-.327l3.852-4.456c.373-.432.368-1.123-.014-1.545-.381-.422-.992-.417-1.364.016l-2.197 2.54V1.092C11.223.487 10.791 0 10.26 0s-.964.49-.964 1.092v9.47L7.098 8.02c-.372-.433-.985-.438-1.364-.016-.381.422-.386 1.116-.014 1.545l3.848 4.456z" transform="translate(-1189 -469) translate(1189 469)"/>
            </g>
        </g>
    </g>
</svg>
